<svg version="1.1" id="Layer_1" xmlns="http://www.w3.org/2000/svg" x="0" y="0" viewBox="0 0 122.88 78.19" style="enable-background:new 0 0 122.88 78.19" xml:space="preserve"><path d="M67.77 57.86c5.53 0 10.01 4.48 10.01 10.01 0 5.53-4.48 10.01-10.01 10.01-5.53 0-10.01-4.48-10.01-10.01 0-5.53 4.48-10.01 10.01-10.01zm18.32-36.93h13.6c.7 0 1.27.57 1.27 1.27v14.22c0 .7-.57 1.27-1.27 1.27h-13.6c-.7 0-1.27-.57-1.27-1.27V22.2c0-.7.57-1.27 1.27-1.27zM104.9 0h14.23c.7 0 1.27.57 1.27 1.27V15.5c0 .69-.57 1.27-1.27 1.27H104.9c-.69 0-1.27-.57-1.27-1.27V1.27c0-.7.57-1.27 1.27-1.27zM86.09 0h13.6c.7 0 1.27.57 1.27 1.27V15.5c0 .7-.57 1.27-1.27 1.27h-13.6c-.7 0-1.27-.57-1.27-1.27V1.27c0-.7.57-1.27 1.27-1.27zm18.81 20.93h14.23c.7 0 1.27.57 1.27 1.27v14.22c0 .69-.57 1.27-1.27 1.27H104.9c-.69 0-1.27-.57-1.27-1.27V22.2c0-.7.57-1.27 1.27-1.27zM70.96 7.78h8.28v9.75h1.56c-.4 8.77-.61 17.3 1.39 23.03h40.69v6.96H79.25v4.46h-.16l3.66.18v18.15h-2.9c.15-.76.23-1.54.23-2.34 0-6.76-5.48-12.25-12.25-12.25-6.76 0-12.25 5.48-12.25 12.25 0 .8.08 1.59.23 2.34h-28.4c.06-.46.09-.93.09-1.41 0-6.38-5.18-11.56-11.56-11.56-6.38 0-11.56 5.18-11.56 11.56 0 .48.03.95.09 1.41H2c-1.09-1.45-1.72-3.5-2-5.97V36.37h17.07c0-.05 0-.1.01-.15l1.83-23.6h-1.18c-1.13 0-2.05-.92-2.05-2.05s.92-2.05 2.05-2.05h13.94c9.12 0 14.16.88 17.86 3.94 3.65 3.03 5.55 7.84 8.5 15.83l7.4 20.05.02.06 2.53 3.02 2.98.15V7.78zM57.65 39.09l-3.47-9.39c-2.71-7.33-4.42-11.73-7.27-14.09-2.81-2.32-7.15-2.99-15.24-2.99h-8.65l-1.86 23.91c-.01.09-.02.19-.04.28l-.96 12.41L42.2 60.85l10.35.14c.41-1.05.88-2.02 1.42-2.91l-10.84-.03-16.7-8.79-.93-.6-.7-16.41c-.02-.51.42-.92.92-.92h2.99c2.94 0 3.91 6.2 3.91 9.55h5.02c6.77 0 5.84 6.58 5.84 11.2v1.35l12.01.35-9.36-15.92 2.1-1.41-1.38-2.07 2.16-1.54 1.49 2.09 2.33-1.56 4.82 5.72zm-1.63 16.38c.1-.1.2-.2.31-.3l-.21-.36-.1.66zM42.2 32.91l7.49-5.08 1.41 2.03-7.52 5.02-1.38-1.97zm25.57 29.4a5.56 5.56 0 0 1 0 11.12 5.56 5.56 0 0 1 0-11.12zm-51.85-2.7a9.29 9.29 0 0 1 0 18.58 9.29 9.29 0 0 1-9.29-9.29c-.01-5.13 4.15-9.29 9.29-9.29zm0 4.13a5.16 5.16 0 1 1 0 10.32 5.16 5.16 0 0 1 0-10.32z" style="fill-rule:evenodd;clip-rule:evenodd"/></svg>